<mxfile host="app.diagrams.net" modified="2021-06-09T14:53:45.804Z" agent="5.0 (Windows NT 10.0; Win64; x64) AppleWebKit/537.36 (KHTML, like Gecko) Chrome/91.0.4472.77 Safari/537.36" etag="LUUw7ajFiR1kQgm33TUS" version="14.7.2" type="github">
  <diagram id="oyahqrK9sXwm7OHUef7B" name="Page-1">
    <mxGraphModel dx="1731" dy="932" grid="1" gridSize="10" guides="1" tooltips="1" connect="1" arrows="1" fold="1" page="1" pageScale="1" pageWidth="827" pageHeight="1169" math="0" shadow="0">
      <root>
        <mxCell id="0" />
        <mxCell id="1" parent="0" />
        <mxCell id="hvF-I7GQl-r4DMs6NaOo-17" value="" style="rounded=0;whiteSpace=wrap;html=1;dashed=1;" vertex="1" parent="1">
          <mxGeometry x="110" y="400" width="500" height="230" as="geometry" />
        </mxCell>
        <mxCell id="hvF-I7GQl-r4DMs6NaOo-13" style="edgeStyle=orthogonalEdgeStyle;rounded=0;orthogonalLoop=1;jettySize=auto;html=1;exitX=0.5;exitY=1;exitDx=0;exitDy=0;entryX=0.5;entryY=0;entryDx=0;entryDy=0;" edge="1" parent="1" source="wpAevyB7OT49CpcOMr3T-1" target="hvF-I7GQl-r4DMs6NaOo-1">
          <mxGeometry relative="1" as="geometry" />
        </mxCell>
        <mxCell id="wpAevyB7OT49CpcOMr3T-1" value="&lt;b style=&quot;font-size: 14px&quot;&gt;&lt;br&gt;&lt;br&gt;&lt;br&gt;&lt;br&gt;To-do App User&lt;/b&gt;&lt;br&gt;[Person]" style="shape=actor;whiteSpace=wrap;html=1;fillColor=#1ba1e2;strokeColor=#006EAF;fontColor=#ffffff;" parent="1" vertex="1">
          <mxGeometry x="140" y="100" width="150" height="150" as="geometry" />
        </mxCell>
        <mxCell id="hvF-I7GQl-r4DMs6NaOo-15" style="edgeStyle=orthogonalEdgeStyle;rounded=0;orthogonalLoop=1;jettySize=auto;html=1;exitX=1;exitY=0.5;exitDx=0;exitDy=0;entryX=0;entryY=0.5;entryDx=0;entryDy=0;startArrow=classic;startFill=1;" edge="1" parent="1" source="hvF-I7GQl-r4DMs6NaOo-1" target="hvF-I7GQl-r4DMs6NaOo-4">
          <mxGeometry relative="1" as="geometry" />
        </mxCell>
        <mxCell id="hvF-I7GQl-r4DMs6NaOo-1" value="&lt;b&gt;&lt;font style=&quot;font-size: 14px&quot;&gt;To-Do Application&lt;br&gt;&lt;/font&gt;&lt;/b&gt;[Software system]&lt;br&gt;&lt;br&gt;&lt;div style=&quot;text-align: left&quot;&gt;&lt;span&gt;Allows users to add, view and interact with their to-do items&lt;/span&gt;&lt;/div&gt;" style="whiteSpace=wrap;html=1;aspect=fixed;fillColor=#dae8fc;strokeColor=#6c8ebf;" vertex="1" parent="1">
          <mxGeometry x="130" y="430" width="170" height="170" as="geometry" />
        </mxCell>
        <mxCell id="hvF-I7GQl-r4DMs6NaOo-4" value="&lt;font&gt;&lt;b style=&quot;font-size: 12px&quot;&gt;Trello&lt;/b&gt;&lt;br&gt;[Software System]&lt;br&gt;&lt;br&gt;&lt;div style=&quot;text-align: left&quot;&gt;Stores all the to-do items and their properties&lt;/div&gt;&lt;/font&gt;" style="rounded=1;whiteSpace=wrap;html=1;fillColor=#f5f5f5;strokeColor=#666666;fontColor=#333333;" vertex="1" parent="1">
          <mxGeometry x="450" y="440" width="140" height="150" as="geometry" />
        </mxCell>
        <mxCell id="hvF-I7GQl-r4DMs6NaOo-14" value="Uses" style="text;html=1;strokeColor=none;fillColor=none;align=center;verticalAlign=middle;whiteSpace=wrap;rounded=0;" vertex="1" parent="1">
          <mxGeometry x="220" y="320" width="40" height="20" as="geometry" />
        </mxCell>
        <mxCell id="hvF-I7GQl-r4DMs6NaOo-16" value="Read/Write" style="text;html=1;strokeColor=none;fillColor=none;align=center;verticalAlign=middle;whiteSpace=wrap;rounded=0;" vertex="1" parent="1">
          <mxGeometry x="360" y="490" width="40" height="20" as="geometry" />
        </mxCell>
      </root>
    </mxGraphModel>
  </diagram>
</mxfile>
